<svg width="49" height="52" viewBox="0 0 49 52" fill="none" xmlns="http://www.w3.org/2000/svg">
<path d="M30 4H12C10.9391 4 9.92172 4.42143 9.17157 5.17157C8.42143 5.92172 8 6.93913 8 8V40C8 41.0609 8.42143 42.0783 9.17157 42.8284C9.92172 43.5786 10.9391 44 12 44H36C37.0609 44 38.0783 43.5786 38.8284 42.8284C39.5786 42.0783 40 41.0609 40 40V14L30 4Z" stroke="#F02200" stroke-opacity="0.42" stroke-width="2" stroke-linecap="round" stroke-linejoin="round"/>
<path d="M28 4V12C28 13.0609 28.4214 14.0783 29.1716 14.8284C29.9217 15.5786 30.9391 16 32 16H40" fill="#F02200" fill-opacity="0.1"/>
<path d="M28 4V12C28 13.0609 28.4214 14.0783 29.1716 14.8284C29.9217 15.5786 30.9391 16 32 16H40" stroke="#F02200" stroke-opacity="0.42" stroke-width="2" stroke-linecap="round" stroke-linejoin="round"/>
<rect x="30.5" y="33.5" width="18" height="18" rx="9" fill="black"/>
<rect x="30.5" y="33.5" width="18" height="18" rx="9" stroke="black"/>
<path d="M35.1669 45.0703C34.7645 44.6591 34.4609 44.1618 34.2791 43.6159C34.0974 43.07 34.0422 42.4899 34.1179 41.9196C34.1935 41.3492 34.398 40.8036 34.7157 40.3239C35.0335 39.8443 35.4562 39.4433 35.9519 39.1512C36.4477 38.8592 37.0033 38.6838 37.5769 38.6383C38.1504 38.5928 38.7268 38.6784 39.2623 38.8887C39.7978 39.099 40.2785 39.4283 40.6679 39.8519C41.0573 40.2754 41.3452 40.782 41.5098 41.3333H42.4794C43.0024 41.3333 43.5115 41.5014 43.9316 41.8129C44.3517 42.1245 44.6604 42.5628 44.8122 43.0633C44.964 43.5638 44.9508 44.0998 44.7746 44.5922C44.5984 45.0846 44.2684 45.5073 43.8336 45.7977" stroke="#F5F5F5" stroke-linecap="round" stroke-linejoin="round"/>
<path d="M39.5 43.5V48.375" stroke="#F5F5F5" stroke-linecap="round" stroke-linejoin="round"/>
<path d="M41.6668 45.6667L39.5002 43.5L37.3335 45.6667" stroke="#F5F5F5" stroke-linecap="round" stroke-linejoin="round"/>
</svg>
